<svg xmlns="http://www.w3.org/2000/svg" id="Layer_1" width="669.7" height="451.4">
  <style>
    .st0{fill:#212121;}
  </style>
  <path d="M640 394.9s-.6-.2-1.8-.7c-1.2-.5-2.9-1-5.2-1.8-4.5-1.5-11.1-3.6-19.6-5.8-8.5-2.3-18.8-4.7-30.8-7.1-11.9-2.5-25.5-4.7-40.3-6.7-3.7-.5-7.5-1-11.4-1.5-3.9-.4-7.8-.8-11.8-1.3-2-.2-4-.4-6.1-.6-2-.2-4.1-.3-6.2-.5-4.1-.3-8.4-.7-12.6-1-4.3-.3-8.6-.5-13-.8-2.2-.1-4.4-.3-6.6-.4-2.2-.1-4.5-.2-6.7-.2-4.5-.2-9-.3-13.6-.5-4.6 0-9.2-.1-13.9-.1-2.3 0-4.7 0-7-.1-2.4 0-4.7.1-7.1.1-4.7.1-9.5.1-14.3.2-4.8.1-9.6.3-14.5.5-2.4.1-4.9.2-7.3.3l-3.7.1-3.7.2-14.7.9c-2.5.2-4.9.3-7.4.5s-4.9.4-7.4.6c-4.9.4-9.9.8-14.8 1.3l-3.7.3-3.7.4-7.4.8c-4.9.6-9.9 1.1-14.8 1.7-4.9.6-9.8 1.4-14.7 2-4.9.7-9.8 1.4-14.7 2-4.9.8-9.7 1.6-14.5 2.4l-14.4 2.4c-4.8.9-9.5 1.8-14.2 2.7-4.7.9-9.4 1.8-14 2.7-2.3.4-4.6.9-6.9 1.4l-6.9 1.5c-4.6 1-9.1 1.9-13.5 2.9-2.2.5-4.5 1-6.7 1.4-2.2.5-4.4 1.1-6.6 1.6-8.7 2.1-17.2 4.2-25.5 6.2-8.2 2.2-16.2 4.4-24 6.5-3.9 1.1-7.7 2-11.4 3.1s-7.4 2.2-10.9 3.2c-7.1 2.1-14 4.1-20.5 6.1s-12.6 4.1-18.3 5.9c-5.7 1.9-11.1 3.6-16.1 5.3-2.5.8-4.9 1.6-7.1 2.4-2.3.8-4.4 1.6-6.5 2.3-16.3 5.8-25.7 9.2-25.7 9.2-1.2.4-1.9 1.7-1.5 2.9.4 1.3 1.7 1.9 3 1.6h.1s9.4-3 25.9-8.1c2.1-.7 4.2-1.3 6.5-2.1 2.3-.7 4.7-1.5 7.2-2.2 5-1.5 10.4-3 16.2-4.7 5.8-1.7 11.9-3.5 18.4-5.3 6.5-1.8 13.4-3.6 20.5-5.5 3.6-1 7.2-1.9 10.9-3 3.7-1 7.5-1.9 11.4-2.8 7.8-1.9 15.8-3.8 24-5.8 8.3-1.8 16.8-3.7 25.5-5.6 2.2-.5 4.4-.9 6.6-1.4 2.2-.4 4.4-.9 6.6-1.3 4.5-.9 8.9-1.8 13.5-2.7 2.3-.4 4.5-.9 6.8-1.4 2.3-.5 4.6-.9 6.9-1.3 4.6-.8 9.3-1.6 14-2.4l14.1-2.4c4.8-.7 9.5-1.4 14.3-2.1l14.4-2.1c4.8-.6 9.7-1.2 14.6-1.8 4.9-.6 9.7-1.2 14.6-1.8l14.7-1.5 7.3-.8 3.7-.4 3.7-.3 14.7-1.2c2.4-.2 4.9-.4 7.3-.6 2.4-.1 4.9-.3 7.3-.4 4.9-.3 9.7-.5 14.6-.8l3.6-.2 3.6-.1c2.4-.1 4.8-.2 7.2-.2 4.8-.1 9.6-.3 14.3-.4 4.7 0 9.5-.1 14.1-.1h7c2.3 0 4.6.1 6.9.1 4.6.1 9.2.1 13.7.2 4.5.2 9 .3 13.4.5 2.2.1 4.4.2 6.6.2 2.2.1 4.4.2 6.5.4 4.3.2 8.6.5 12.8.7 4.2.3 8.4.7 12.4 1 2 .2 4.1.3 6.1.5l6 .6c3.9.4 7.8.8 11.6 1.2 3.8.5 7.5.9 11.2 1.4 14.6 2 27.9 4 39.6 6.3 11.7 2.3 21.9 4.5 30.1 6.7 8.3 2.1 14.7 4 19 5.4 2.1.7 3.8 1.2 4.8 1.6 1.1.4 1.6.6 1.6.6l.1.1c3 1.1 6.3-.5 7.4-3.5 1.3-3.2-.2-6.6-3.2-7.7zM309.1 115.7c15.5 7.4 35 18.9 38.4 37.5 3.5 18.8-13.6 38.1-30.3 42.5-15.7 4.2-35.7-12.2-33.5-26 1-6.5 22.4-30.1 1.3-30.7-13.7-.4-24.1 6.6-30.1 16.6-3.6 2.7-7.1 6.2-9.6 8.6-11.1 10.5-25.2 18-39.8 23.2-.8 1.2-1.5 2.2-1.9 2.7-11.7 14.3-19.8 32.7-27.4 49.9 2.5-.7 5.1-1.4 7.5-2.2 18.3-6.1 50.3-21.4 70.4-40.1 1.7 2.9 3.8 5.5 6.4 7.9 12.7 11.6 31.3 16.6 48.7 14.9 9-.8 17.8-3.6 26.4-5.9 13.5-3.6 26.5-10.2 37.6-19.2 28 18.1 75.9 17.5 104.4 6.6 31-11.8 58.9-28.3 66.5-63.5 3.8-17.7-5.4-35.2-19.1-45.7-14.7-11.2-55.3-17.7-51.5-41.2 2.8-17.1 27.1-30 43.8-26 16.5 4 2.5 10.6-2.3 16.7-12.5 15.8 13.7 28 26.2 24.7 20.3-5.4 36.9-33.8 20.3-52C548.9 1.6 526.1-1.1 509.4.3c-47.4 3.9-130.3 63-58.1 101.9 15.2 8.2 34 20.8 36.7 39.4 2.7 18.5-17.4 33.2-32.9 36.7-21.1 4.7-43.3 4.2-60.5-8.2 3.9-7 6.7-14.6 8.2-22.6 3.1-17.5-7-34.8-21.2-44.7-15.2-10.5-55.8-14.9-53.2-38.6 1.9-17.2 25.4-31.3 42.2-28.1 16.6 3.1 3 10.4-1.5 16.7-11.6 16.3 14.8 27.4 27.2 23.4 20-6.5 34.9-35.6 17.6-53-12.9-12.8-35.6-14.3-52.2-12.1-47.1 6.3-126.2 69.4-52.6 104.6z" class="st0"/>
  <path d="M123.1 242.5c5.5-14.9 11.3-29.2 18.1-43.6-7.7-.9-14.5-3.1-18.7-7.5-13.3-14-9.6-42.4-3.5-58.6 13.3-35 52.7-72.2 87.8-83.5 10.5-3.4 31.6-3.7 31.5 11.6 0 4.2-2.2 8.5-4.9 12-4.2 5.4-11.7 8.2-8.7 15.1 1.6 3.6 7.2 5.9 10.6 6.8 16.3 4.6 38.2-5.7 41.6-24 2.1-11.4-4.9-26.4-13.5-33.4-9.5-7.8-25.5-14.1-37.8-14.5-31.2-1.1-58.7 8.3-85 23.6-30.7 17.7-58.2 44.4-72 77.3-11.7 27.8-12 55.4 1.2 82.7 9.4 19.3 31.8 32 53.3 36z" class="st0"/>
  <path d="M46 399.4c27.3-6.8 46.1-28 64.2-48.1 1.6 12.4 6.5 22.4 17.6 25.6 14.3 4.1 28.2-5.2 38-13.1 10.6-8.7 19.6-22 28.1-33.9 0 0 1.1 9.9 4.2 16.3 2.6 5.5 7 10.2 12.3 13.4 5.2 3.1 11.8 3.3 17.7 2.3 12.5-2.1 25.7-11.3 34.4-20.1 4.1 2.6 3.7 8.6 9.7 11.5 5.9 2.9 12.9 1.7 19.1.1 8.9-2.2 18.3-7.7 26.1-14.2 1.6 1.9 3.4 3.4 5.2 4.4 20.3 11.1 57.6-2 64.4-26.1 2.5 7.9 7 15.2 12 18.1 23.6 13.8 72.5-5.4 66.1-38.6-3.3-17.3-17.2-28.9-26.7-43-3.7-5.4-5.5-13.9.8-18.1 5.9-3.9 11.4-3.5 15.3-2.1 3.9 1.4 7.2 5.1 5.8 10.5-1.3 5 11.2 8.5 15.9 5 9.9-7.5 1.1-23.2-6.3-28.2-12-8.1-29.1-7.8-42.3-1.6-15.7 7.3-23 24.9-15.6 40.8 5 10.6 14.5 18.5 19 29.5 8.4 20.1-22.9 30.1-24.3 10.5-.4-5.4-1.7-8.3-4.4-9-9.4-2.3-14.5 1.2-16.5 7.1-5.1-14.6-17.6-25.1-26.5-37.6-3.8-5.3-5.9-13.8.3-18.1 5.7-4.1 11.2-3.8 15.2-2.5 3.9 1.3 7.3 4.9 6.1 10.3-1.2 5 11.4 8.2 15.9 4.5 9.7-7.8.4-23.2-7.1-28-12.2-7.8-29.5-7-42.2-.4-14.4 7.6-22.8 25.5-14.3 41.3 5.6 10.4 14.9 18.1 19.8 28.9 9 19.9-21.9 30.7-23.9 11.2-.5-5.4-1.9-8.3-4.6-8.9-14.3-3-18.3 6.8-16.7 18.1-2 2.6-4.3 4.7-6.9 4.9-11.6 1.3-8.9-11.8-6.1-18.6 3.3-7.8 15.2-18 .2-18.8-25.8-1.4-32.2 36.8-54.5 42.4-8.6 2.2-16.8-4.9-17-15.6-.2-18.5 15.1-39.9 30.8-50 11.8-7.6 23.8-8.7 29-4.3 3.5 3 6.5 5.9 4.7 10.1-.9 2.2 1.6 4.5 5.6 4.4 13-.3 22-11.5 19.9-24.7-2.7-17-27.1-18.8-40.1-16.8-28.5 4.4-55.7 27-72 50.4-10.1 14.5-18.8 30.3-29.8 44.3-4.3 5.5-8.4 8.8-12 10.1-7.4.6-13.4-8.8-12.8-20.2 2.2-15.2 4.2-31.1 8.3-45.5 8.2-28.6 21.7-61.5 40.9-84.7 1.8-2.2 4.5-7 1-8.9-11.4-6.2-26.2-7.6-34.5 4.6-24.1 30.9-35.9 73.6-45.4 110.9-2 7.8-5.2 20.9-6.9 34.5-14.4 14.2-28.4 27.5-47.8 34.5-13 4.7-28.5 1.7-28-15.1.6-17.3 9.2-34.3 20.9-46.5 7.5-7.8 35.2-14 23.1 5.5-3 4.8 8.4 11 18 4.9 6.7-4.3 8.1-8.5 9.8-13 10.7-27.3-29-34.9-46.9-28.4C26 280.3 3.5 311.4.3 346.7-2.3 374 13.5 407.4 46 399.4z" class="st0"/>
  <path d="M660.1 216.7c-11.6-9-28.7-9.8-42.5-4.5-16.2 6.2-24.9 23.2-18.5 39.7 4.3 11 13.3 19.5 17.1 30.7 7.1 20.7-25.1 28.4-25.2 8.8 0-5.4-1.1-8.4-3.8-9.3-11.1-3.5-16.5 1.5-18.1 9.4-16.8 8.8-36 17.5-54.1 10.5-10.4-4-13.1-26.5-5.5-27.6 9.4-1.4 27.6 4.4 42.4.1 18.4-5.4 52.4-30.6 31.1-53.6-26.2-28.2-78.2 1.9-96.9 24.6-14.5 17.6-22.8 47.7-14.4 69.8 7.3 19.3 33.4 21.6 50.7 18.1 18.6-3.7 33.7-11.6 48.8-22.2 2.2 6.4 5.6 12 9.7 14.7 22.6 15.3 73.4-.1 69.2-33.9-2.2-17.5-15.3-30-23.9-44.8-3.3-5.7-4.6-14.3 2-18 6.2-3.5 11.7-2.7 15.6-1 3.8 1.6 6.9 5.6 5.1 10.9-1.7 4.9 10.7 9.3 15.6 6.1 10.6-6.8 2.7-23.1-4.4-28.5zm-143 41.7c4.9-9.6 16.7-18.8 26.8-22.6 7.9-3 15.7-4 17.8-1.5 5.6 6.5-2.8 15.3-8.2 18.3-6.6 3.7-15.8 5.7-23.4 6.1-.8-.1-14.2 2.2-13-.3z" class="st0"/>
</svg>
